PathFileType	4	(X/Y/Z)	Patient4_TMGait_0pt7_01_right_35.trc.trc
DataRate	CameraRate	NumFrames	NumMarkers	Units	OrigDataRate	OrigDataStartFrame	OrigNumFrames
88.050314465409	88.050314465409	6	33	mm	88.050314465409	53	       141
Frame#	Time	Sacral			L.Shoulder			Chest			R.Shoulder			Neck			R.ASIS			L.ASIS			R.Thigh.Superior			R.Thigh.Lateral			R.Thigh.Inferior			R.Patella			L.Thigh.Superior			L.Thigh.Lateral			L.Thigh.Inferior			L.Patella			L.Shank.Superior			L.Shank.Lateral			L.Shank.Inferior			R.Shank.Superior			R.Shank.Lateral			R.Shank.Inferior			R.Heel			R.Midfoot.Superior			R.Midfoot.Lateral			R.Toe			L.Heel			L.Midfoot.Lateral			L.Midfoot.Superior			L.Toe			L.Elbow			L.Wrist			R.Elbow			R.Wrist			
		X1	Y1	Z1	X2	Y2	Z2	X3	Y3	Z3	X4	Y4	Z4	X5	Y5	Z5	X6	Y6	Z6	X7	Y7	Z7	X8	Y8	Z8	X9	Y9	Z9	X10	Y10	Z10	X11	Y11	Z11	X12	Y12	Z12	X13	Y13	Z13	X14	Y14	Z14	X15	Y15	Z15	X16	Y16	Z16	X17	Y17	Z17	X18	Y18	Z18	X19	Y19	Z19	X20	Y20	Z20	X21	Y21	Z21	X22	Y22	Z22	X23	Y23	Z23	X24	Y24	Z24	X25	Y25	Z25	X26	Y26	Z26	X27	Y27	Z27	X28	Y28	Z28	X29	Y29	Z29	X30	Y30	Z30	X31	Y31	Z31	X32	Y32	Z32	X33	Y33	Z33	

53	40.450571428571	846.149951458790	1012.119684896381	510.329420934604	1035.642387962607	1421.568292281437	299.098027459396	1144.418741022137	1355.456026194624	459.256409116785	1072.935142473787	1443.658236937224	632.042497466286	1050.657905145778	1490.559355709426	451.325225546917	1074.234502260011	943.896007774570	623.209218001544	1052.532573393063	954.131574174171	349.549155624519	1103.720986551503	738.262417044978	596.303623864595	1013.702625404006	633.742062448673	652.945253083523	1087.520765940024	577.430461334353	573.656722094779	1080.465346771484	488.227446756398	577.907310186506	1142.124610919381	788.778831114830	384.781966445537	1111.299184504282	663.170583634735	299.308877885657	1217.819841376436	606.530667327901	364.247495219672	1238.221690357417	517.769609896416	354.781121055536	1175.669829249288	447.542089506058	342.777646824493	1036.847438260226	396.468567851862	295.518517530783	1037.936885537818	263.502892220990	341.637975167557	1046.881935796585	401.515000111398	582.623998994461	966.335496921494	302.470922820176	639.462728753080	1003.867810753624	205.545194632294	575.840197119309	859.133404967139	45.787330002695	540.269955970818	1030.575633483231	96.851836432616	580.906249019576	940.167799867729	38.400110343306	616.837312757217	1148.868970277700	39.843483627155	614.479960095793	857.117481964149	189.842708483445	384.615283318301	908.680582131341	145.205273890865	299.849453688335	1014.647894978264	153.296877986753	314.325364117727	1089.709073767659	41.126882892828	279.351212480025	970.171251081088	1064.327751874262	222.963209114058	1021.296324200959	807.731070514996	222.221556961000	1062.451626643016	1100.284170750238	771.688326256877	1255.098740007290	930.948075698244	732.055713439922	
54	40.461928571429	845.331873477217	1012.576538751706	511.468238257291	1034.428368789280	1421.367658648787	299.237329123435	1144.012702371544	1355.088141065506	458.728752737971	1073.974229638729	1443.671548817094	631.925325646685	1050.533638879017	1490.509181386691	451.332431737430	1073.322793136704	943.614587429847	623.132165339548	1050.663022081151	954.517488074928	349.422417225087	1100.463827546186	737.390739225875	595.647486679706	1009.607551695039	633.737301635476	652.998482066522	1082.235120606449	576.611661230707	573.376575338412	1074.187788360837	487.702411468906	577.728055887293	1141.560130608484	791.887430138694	385.247875189521	1112.893683954712	665.575072895685	299.758526312603	1220.291368125286	610.879534210127	364.541669158754	1242.775074086987	523.189403389278	355.019756222466	1183.585516252018	451.127503248771	343.088377037880	1047.879340534684	392.456930420734	295.973154965658	1056.631671647666	259.605061915133	342.079081100191	1040.313718702428	401.158115291766	582.568296720154	959.415505955751	302.484787531328	639.523438924230	996.428690281346	205.405298546859	575.864706320961	851.194197449881	45.905831124458	540.381316224289	1022.622120804282	96.863435002821	581.005412963512	932.186454239836	38.468646049805	616.911399746668	1140.848360263027	39.776761084948	614.595230503612	880.301706196902	174.102305400870	385.082727806734	934.976602924753	133.860152079970	300.041842348803	1040.179261564438	149.104086726869	314.729844200295	1123.054253811224	42.839525927298	279.052423279648	964.452266491526	1064.718230526735	224.684959806634	1001.298142305034	805.840443489269	224.640880907899	1073.726988251146	1100.870660457873	772.472201310939	1276.076501295839	945.460028216329	728.141476365684	
55	40.473285714286	844.525340081307	1013.016131929375	512.403213663538	1033.332621117384	1421.180439835384	299.305895348409	1143.694032670047	1354.649797521423	458.104137883247	1075.109923057003	1443.599104284301	631.712541181343	1050.498651492532	1490.403237175901	451.276971049528	1072.385293692919	943.260967419821	622.926135733080	1048.873690118385	954.808926158067	349.166744426157	1097.195751337394	736.478470380027	594.985690843317	1005.411921592246	633.716779395056	652.992081214681	1076.871683136388	575.778792775591	573.088436980819	1067.828633128886	487.201799736931	577.536147170304	1140.670559065507	794.500306616442	385.551473627989	1113.923008416687	667.549768864774	300.097124066169	1221.897597416682	614.539258898890	364.867274721705	1246.318163801176	528.107810980678	355.359982585543	1190.730474645510	454.415129195803	343.508820848730	1059.021968495056	387.952770207902	295.992700405237	1075.498747171633	255.717332627502	342.422256195421	1033.689824923015	400.818456322426	582.480268552700	952.468785842352	302.502749163279	639.572777337041	988.962267826700	205.282085782845	575.876251297942	843.258302004100	46.018820126324	540.522281316844	1014.666796158082	96.876242011741	581.106233604069	924.201860436673	38.534173991620	616.988520311872	1132.826349518510	39.718169324685	614.699850944829	904.516500116803	158.439942738389	384.741849425049	962.409712376908	122.701586365491	299.873236896169	1066.214299690554	145.154187626561	315.259187139352	1156.688863814538	45.270210279202	279.674133928234	958.083255158951	1065.459809853202	225.919617555877	982.342954546098	805.342141556169	227.028626371412	1085.040205602015	1101.771720716926	773.007236788474	1296.010639437864	960.967864059643	723.737071240872	
56	40.484642857143	843.723744669008	1013.430895825563	513.119949614842	1032.353442090663	1421.002814914692	299.302997541096	1143.455080701706	1354.140331111612	457.388172808953	1076.321866901426	1443.434359453542	631.405635941854	1050.555831503804	1490.235349468371	451.160896645640	1071.439770858757	942.840245857984	622.586960243279	1047.193978926589	954.997514178334	348.780157785825	1093.936380364079	735.520157667573	594.347421380800	1001.143073632414	633.668418005927	652.923565880739	1071.472731494078	574.928970846116	572.797416688328	1061.438226872582	486.713429051747	577.324634423007	1139.484492940435	796.569249101373	385.721361033860	1114.414948571199	669.054158180970	300.319460052841	1222.640810227065	617.424709837756	365.262312649875	1248.848946538110	532.443043190606	355.855350188081	1197.050435113963	457.368736509396	344.076899393427	1070.263308114661	383.101090859751	295.549979650408	1094.334901491084	252.008283400489	342.683293105357	1027.043052880565	400.484241283403	582.351627526418	945.516488005227	302.520592123951	639.600061825286	981.483732271336	205.166683820182	575.866281947305	835.318760804015	46.122686752778	540.683535190235	1006.706961796676	96.886467624503	581.202729327884	916.211800742551	38.593901013224	617.065526976914	1124.804301675905	39.670005803290	614.796012740439	929.514001878856	143.226694344720	383.546104734460	990.732939392433	112.073258249056	299.342771702077	1092.468473763182	141.670330918294	315.931421898560	1190.195471340476	48.597373163328	281.322216412641	951.127455197851	1066.566573495455	226.677896524612	964.564923846326	805.977059895957	229.368954012365	1096.354206084400	1102.961225963474	773.270633062771	1314.780969772429	977.317427320604	718.863305301003	
57	40.496000000000	842.932165842618	1013.807674855561	513.608520768142	1031.488488399263	1420.828032008039	299.228111388000	1143.286269132479	1353.559563315939	456.589063228196	1077.586124389325	1443.173463958857	631.006497860130	1050.702610682689	1489.999272990960	450.985360010512	1070.506403865486	942.356534435282	622.111456286047	1045.654468303033	955.078936851325	348.259275276326	1090.702120987684	734.510821316757	593.747983284764	996.830340866782	633.579592054182	652.786931905458	1066.078777262564	574.057093290561	572.501167209355	1055.064618563969	486.221701665800	577.083410424610	1138.039282468941	798.059876460381	385.777940389414	1114.399450394927	670.058504452475	300.411837673538	1222.543298904535	619.475265790298	365.739081884649	1250.388765472367	536.133331190957	356.532114530148	1202.507290989202	459.956271965112	344.803182356083	1081.547760990449	378.045063304745	294.647771177185	1112.915414269487	248.611138612011	342.881369499732	1020.402918938288	400.141754655649	582.173309622089	938.576567826171	302.532910029533	639.592244250681	974.005637369490	205.048865060994	575.826769974789	827.370046091582	46.214241877779	540.852060232878	998.740450781088	96.891361159383	581.289397093077	908.214293723809	38.645188319525	617.138879124386	1116.783368685218	39.633220141740	614.884868242644	954.986943162346	128.770749804689	381.520020201098	1019.627590652048	102.251896524551	298.489751687274	1118.626308514697	138.821402867708	316.761786422006	1223.151960254108	52.927744273015	284.043532491619	943.692535444046	1068.037601979506	226.992340217857	948.021197244673	807.490697109082	231.647401814051	1107.630371777283	1104.410831205699	773.240876030913	1332.289849870654	994.340101685195	713.559818079445	
58	40.507357142857	842.170131635953	1014.125085471659	513.863987769173	1030.735198796016	1420.646006001741	299.080772449826	1143.176930480350	1352.907457627505	455.717231652314	1078.875381010696	1442.814143952205	630.517221934298	1050.930066944907	1489.688145790128	450.750854693989	1069.608383759976	941.811752148378	621.501124478933	1044.285409919252	955.049169902874	347.601617094524	1087.508977392680	733.445945058706	593.188255401744	992.505796100381	633.437878100946	652.574128627533	1060.728466335329	573.156112628751	572.191193865332	1048.752118259175	485.708522194080	576.801068822836	1136.382593378459	798.950651488788	385.732866295646	1113.910876753854	670.543915435548	300.353623351312	1221.650802186842	620.657713484702	366.283264448448	1250.981848911872	539.135507065774	357.384452257447	1207.079130069910	462.147447155321	345.665771669880	1092.762958862822	372.916516180204	293.326188851987	1130.993768266274	245.615327352862	343.036545277199	1013.796963358505	399.776480403765	581.937390185989	931.664476264978	302.533683359622	639.536185100838	966.538064474324	204.917536079297	575.751226490480	819.408759252448	46.290947601165	541.013626870796	990.765584258194	96.888978126395	581.361388911785	900.207900258116	38.686064781733	617.205573072348	1108.764056660422	39.606995835370	614.966350126197	980.571883408605	115.310219834301	378.772508449104	1048.692452727506	93.434636112075	297.395191642246	1144.335572939398	136.709532532049	317.756267611446	1255.120865074924	58.276634992991	287.799570160401	935.919131186340	1069.854855551889	226.914942806422	932.700207217075	809.651471750130	233.850605722363	1118.825533287822	1106.090813312096	772.899070458638	1348.463308638706	1011.857611438342	707.883574444234	
